<mxfile host="app.diagrams.net" modified="2020-11-27T07:07:21.783Z" agent="5.0 (Windows NT 6.1; Win64; x64) AppleWebKit/537.36 (KHTML, like Gecko) Chrome/83.0.4103.97 Safari/537.36" etag="LYAFdU6jHj9Ch_K_l6hU" version="13.9.9" type="github">
  <diagram id="01YVRN5WHOi22kXBUqmN" name="第 1 页">
    <mxGraphModel dx="3327" dy="896" grid="1" gridSize="10" guides="1" tooltips="1" connect="1" arrows="1" fold="1" page="1" pageScale="1" pageWidth="827" pageHeight="1169" math="0" shadow="0">
      <root>
        <mxCell id="0" />
        <mxCell id="1" parent="0" />
        <mxCell id="mKIrfrcM3_r9y4etdSSy-2" value="客服航线" style="rounded=1;whiteSpace=wrap;html=1;fillColor=#dae8fc;strokeColor=#6c8ebf;fontSize=14;" parent="1" vertex="1">
          <mxGeometry x="-140" y="140" width="680" height="60" as="geometry" />
        </mxCell>
        <mxCell id="mKIrfrcM3_r9y4etdSSy-4" value="经理审核页面" style="rounded=1;whiteSpace=wrap;html=1;fillColor=#dae8fc;strokeColor=#6c8ebf;fontSize=14;" parent="1" vertex="1">
          <mxGeometry x="90" y="270" width="120" height="60" as="geometry" />
        </mxCell>
        <mxCell id="mKIrfrcM3_r9y4etdSSy-5" value="对账" style="rounded=1;whiteSpace=wrap;html=1;fillColor=#dae8fc;strokeColor=#6c8ebf;fontSize=14;" parent="1" vertex="1">
          <mxGeometry x="420" y="270" width="120" height="60" as="geometry" />
        </mxCell>
        <mxCell id="mKIrfrcM3_r9y4etdSSy-6" value="是否同意" style="rhombus;whiteSpace=wrap;html=1;fillColor=#dae8fc;strokeColor=#6c8ebf;fontSize=14;" parent="1" vertex="1">
          <mxGeometry x="280" y="260" width="80" height="80" as="geometry" />
        </mxCell>
        <mxCell id="mKIrfrcM3_r9y4etdSSy-12" value="客服航线费用确认" style="rounded=1;whiteSpace=wrap;html=1;fillColor=#dae8fc;strokeColor=#6c8ebf;fontSize=14;" parent="1" vertex="1">
          <mxGeometry x="-110" y="270" width="120" height="60" as="geometry" />
        </mxCell>
        <mxCell id="mKIrfrcM3_r9y4etdSSy-13" value="" style="endArrow=classic;html=1;entryX=0;entryY=0.5;entryDx=0;entryDy=0;exitX=1;exitY=0.5;exitDx=0;exitDy=0;fontSize=14;" parent="1" source="mKIrfrcM3_r9y4etdSSy-12" target="mKIrfrcM3_r9y4etdSSy-4" edge="1">
          <mxGeometry width="50" height="50" relative="1" as="geometry">
            <mxPoint x="30" y="300" as="sourcePoint" />
            <mxPoint x="80" y="250" as="targetPoint" />
          </mxGeometry>
        </mxCell>
        <mxCell id="mKIrfrcM3_r9y4etdSSy-14" value="" style="endArrow=classic;html=1;entryX=0;entryY=0.5;entryDx=0;entryDy=0;fontSize=14;" parent="1" target="mKIrfrcM3_r9y4etdSSy-6" edge="1">
          <mxGeometry width="50" height="50" relative="1" as="geometry">
            <mxPoint x="210" y="300" as="sourcePoint" />
            <mxPoint x="260" y="250" as="targetPoint" />
          </mxGeometry>
        </mxCell>
        <mxCell id="mKIrfrcM3_r9y4etdSSy-15" value="" style="endArrow=classic;html=1;entryX=0;entryY=0.5;entryDx=0;entryDy=0;fontSize=14;" parent="1" target="mKIrfrcM3_r9y4etdSSy-5" edge="1">
          <mxGeometry width="50" height="50" relative="1" as="geometry">
            <mxPoint x="360" y="300" as="sourcePoint" />
            <mxPoint x="410" y="250" as="targetPoint" />
          </mxGeometry>
        </mxCell>
        <mxCell id="mKIrfrcM3_r9y4etdSSy-16" value="&lt;font color=&quot;#66cc00&quot; style=&quot;font-size: 14px;&quot;&gt;Y&lt;/font&gt;" style="text;html=1;strokeColor=none;fillColor=none;align=center;verticalAlign=middle;whiteSpace=wrap;rounded=0;fontSize=14;" parent="1" vertex="1">
          <mxGeometry x="360" y="270" width="40" height="20" as="geometry" />
        </mxCell>
        <mxCell id="mKIrfrcM3_r9y4etdSSy-17" value="" style="endArrow=classic;html=1;exitX=0.5;exitY=1;exitDx=0;exitDy=0;entryX=0.425;entryY=1.033;entryDx=0;entryDy=0;entryPerimeter=0;fontSize=14;" parent="1" source="mKIrfrcM3_r9y4etdSSy-6" target="mKIrfrcM3_r9y4etdSSy-12" edge="1">
          <mxGeometry width="50" height="50" relative="1" as="geometry">
            <mxPoint x="340" y="400" as="sourcePoint" />
            <mxPoint x="-50" y="420" as="targetPoint" />
            <Array as="points">
              <mxPoint x="320" y="450" />
              <mxPoint x="-60" y="450" />
            </Array>
          </mxGeometry>
        </mxCell>
        <mxCell id="mKIrfrcM3_r9y4etdSSy-18" value="&lt;font color=&quot;#ff0000&quot; style=&quot;font-size: 14px;&quot;&gt;N&lt;/font&gt;" style="text;html=1;strokeColor=none;fillColor=none;align=center;verticalAlign=middle;whiteSpace=wrap;rounded=0;fontSize=14;" parent="1" vertex="1">
          <mxGeometry x="280" y="360" width="40" height="20" as="geometry" />
        </mxCell>
        <mxCell id="mKIrfrcM3_r9y4etdSSy-20" value="逐费用驳回 不需写出正确结果" style="rounded=1;whiteSpace=wrap;html=1;fillColor=#dae8fc;strokeColor=#6c8ebf;fontSize=14;" parent="1" vertex="1">
          <mxGeometry x="80" y="420" width="120" height="60" as="geometry" />
        </mxCell>
        <mxCell id="mKIrfrcM3_r9y4etdSSy-21" value="结算" style="rounded=1;whiteSpace=wrap;html=1;fillColor=#fff2cc;strokeColor=#d6b656;fontSize=14;" parent="1" vertex="1">
          <mxGeometry x="-920" y="140" width="720" height="60" as="geometry" />
        </mxCell>
        <mxCell id="mKIrfrcM3_r9y4etdSSy-26" value="" style="edgeStyle=orthogonalEdgeStyle;rounded=0;orthogonalLoop=1;jettySize=auto;html=1;fontSize=14;" parent="1" source="mKIrfrcM3_r9y4etdSSy-22" target="mKIrfrcM3_r9y4etdSSy-23" edge="1">
          <mxGeometry relative="1" as="geometry" />
        </mxCell>
        <mxCell id="mKIrfrcM3_r9y4etdSSy-22" value="未对账 | 对账中页面&amp;nbsp;" style="rounded=1;whiteSpace=wrap;html=1;fillColor=#fff2cc;strokeColor=#d6b656;fontSize=14;" parent="1" vertex="1">
          <mxGeometry x="-920" y="270" width="120" height="60" as="geometry" />
        </mxCell>
        <mxCell id="mKIrfrcM3_r9y4etdSSy-29" value="" style="edgeStyle=orthogonalEdgeStyle;rounded=0;orthogonalLoop=1;jettySize=auto;html=1;fontSize=14;" parent="1" source="mKIrfrcM3_r9y4etdSSy-40" target="mKIrfrcM3_r9y4etdSSy-27" edge="1">
          <mxGeometry relative="1" as="geometry" />
        </mxCell>
        <mxCell id="mKIrfrcM3_r9y4etdSSy-23" value="逐费用驳回至航线客服&lt;br style=&quot;font-size: 14px;&quot;&gt;需给出正确答案" style="rounded=1;whiteSpace=wrap;html=1;fillColor=#fff2cc;strokeColor=#d6b656;fontSize=14;" parent="1" vertex="1">
          <mxGeometry x="-700" y="270" width="150" height="60" as="geometry" />
        </mxCell>
        <mxCell id="mKIrfrcM3_r9y4etdSSy-30" style="edgeStyle=orthogonalEdgeStyle;rounded=0;orthogonalLoop=1;jettySize=auto;html=1;entryX=0;entryY=0.5;entryDx=0;entryDy=0;fontSize=14;" parent="1" source="mKIrfrcM3_r9y4etdSSy-27" target="mKIrfrcM3_r9y4etdSSy-12" edge="1">
          <mxGeometry relative="1" as="geometry" />
        </mxCell>
        <mxCell id="mKIrfrcM3_r9y4etdSSy-27" value="是否同意" style="rhombus;whiteSpace=wrap;html=1;fillColor=#fff2cc;strokeColor=#d6b656;fontSize=14;" parent="1" vertex="1">
          <mxGeometry x="-280" y="260" width="80" height="80" as="geometry" />
        </mxCell>
        <mxCell id="mKIrfrcM3_r9y4etdSSy-31" value="&lt;font color=&quot;#66cc00&quot; style=&quot;font-size: 14px;&quot;&gt;Y&lt;/font&gt;" style="text;html=1;strokeColor=none;fillColor=none;align=center;verticalAlign=middle;whiteSpace=wrap;rounded=0;fontSize=14;" parent="1" vertex="1">
          <mxGeometry x="-190" y="280" width="40" height="20" as="geometry" />
        </mxCell>
        <mxCell id="mKIrfrcM3_r9y4etdSSy-32" value="&lt;font color=&quot;#ff0000&quot; style=&quot;font-size: 14px;&quot;&gt;N&lt;/font&gt;" style="text;html=1;strokeColor=none;fillColor=none;align=center;verticalAlign=middle;whiteSpace=wrap;rounded=0;fontSize=14;" parent="1" vertex="1">
          <mxGeometry x="-270" y="350" width="40" height="20" as="geometry" />
        </mxCell>
        <mxCell id="mKIrfrcM3_r9y4etdSSy-37" value="" style="endArrow=classic;html=1;exitX=0.5;exitY=1;exitDx=0;exitDy=0;fontSize=14;" parent="1" source="mKIrfrcM3_r9y4etdSSy-27" edge="1">
          <mxGeometry width="50" height="50" relative="1" as="geometry">
            <mxPoint x="-370" y="440" as="sourcePoint" />
            <mxPoint x="-760" y="300" as="targetPoint" />
            <Array as="points">
              <mxPoint x="-240" y="490" />
              <mxPoint x="-760" y="490" />
            </Array>
          </mxGeometry>
        </mxCell>
        <mxCell id="mKIrfrcM3_r9y4etdSSy-38" value="客服驳回结算的意见" style="rounded=1;whiteSpace=wrap;html=1;fillColor=#fff2cc;strokeColor=#d6b656;fontSize=14;" parent="1" vertex="1">
          <mxGeometry x="-570" y="460" width="120" height="60" as="geometry" />
        </mxCell>
        <mxCell id="mKIrfrcM3_r9y4etdSSy-40" value="客服航线费用未确认" style="rounded=1;whiteSpace=wrap;html=1;fillColor=#fff2cc;strokeColor=#d6b656;fontSize=14;" parent="1" vertex="1">
          <mxGeometry x="-473.5" y="270" width="120" height="60" as="geometry" />
        </mxCell>
        <mxCell id="mKIrfrcM3_r9y4etdSSy-41" value="" style="edgeStyle=orthogonalEdgeStyle;rounded=0;orthogonalLoop=1;jettySize=auto;html=1;fontSize=14;" parent="1" source="mKIrfrcM3_r9y4etdSSy-23" target="mKIrfrcM3_r9y4etdSSy-40" edge="1">
          <mxGeometry relative="1" as="geometry">
            <mxPoint x="-450" y="300" as="sourcePoint" />
            <mxPoint x="-280" y="300" as="targetPoint" />
          </mxGeometry>
        </mxCell>
        <mxCell id="mKIrfrcM3_r9y4etdSSy-46" value="" style="edgeStyle=orthogonalEdgeStyle;rounded=0;orthogonalLoop=1;jettySize=auto;html=1;fontSize=14;" parent="1" source="mKIrfrcM3_r9y4etdSSy-42" target="mKIrfrcM3_r9y4etdSSy-45" edge="1">
          <mxGeometry relative="1" as="geometry" />
        </mxCell>
        <mxCell id="mKIrfrcM3_r9y4etdSSy-42" value="调账页面" style="rounded=1;whiteSpace=wrap;html=1;fillColor=#d5e8d4;strokeColor=#82b366;fontSize=14;" parent="1" vertex="1">
          <mxGeometry x="-920" y="660" width="120" height="60" as="geometry" />
        </mxCell>
        <mxCell id="mKIrfrcM3_r9y4etdSSy-48" value="" style="edgeStyle=orthogonalEdgeStyle;rounded=0;orthogonalLoop=1;jettySize=auto;html=1;fontSize=14;" parent="1" source="mKIrfrcM3_r9y4etdSSy-45" target="mKIrfrcM3_r9y4etdSSy-47" edge="1">
          <mxGeometry relative="1" as="geometry" />
        </mxCell>
        <mxCell id="mKIrfrcM3_r9y4etdSSy-45" value="调账完成 生成TZBOAE订单号 驳回至客服航线" style="whiteSpace=wrap;html=1;rounded=1;strokeColor=#82b366;fillColor=#d5e8d4;fontSize=14;" parent="1" vertex="1">
          <mxGeometry x="-700" y="660" width="150" height="60" as="geometry" />
        </mxCell>
        <mxCell id="mKIrfrcM3_r9y4etdSSy-50" value="" style="edgeStyle=orthogonalEdgeStyle;rounded=0;orthogonalLoop=1;jettySize=auto;html=1;fontSize=14;" parent="1" source="mKIrfrcM3_r9y4etdSSy-47" target="mKIrfrcM3_r9y4etdSSy-49" edge="1">
          <mxGeometry relative="1" as="geometry" />
        </mxCell>
        <mxCell id="mKIrfrcM3_r9y4etdSSy-47" value="&lt;span style=&quot;font-size: 14px;&quot;&gt;客服航线费用未确认&lt;/span&gt;" style="whiteSpace=wrap;html=1;rounded=1;strokeColor=#82b366;fillColor=#d5e8d4;fontSize=14;" parent="1" vertex="1">
          <mxGeometry x="-473" y="660" width="120" height="60" as="geometry" />
        </mxCell>
        <mxCell id="mKIrfrcM3_r9y4etdSSy-49" value="&lt;span style=&quot;font-size: 14px;&quot;&gt;是否同意&lt;/span&gt;" style="rhombus;whiteSpace=wrap;html=1;rounded=1;strokeColor=#82b366;fillColor=#d5e8d4;fontSize=14;" parent="1" vertex="1">
          <mxGeometry x="-295" y="650" width="80" height="80" as="geometry" />
        </mxCell>
        <mxCell id="mKIrfrcM3_r9y4etdSSy-51" value="" style="endArrow=classic;html=1;entryX=0.25;entryY=1;entryDx=0;entryDy=0;fontSize=14;" parent="1" target="mKIrfrcM3_r9y4etdSSy-12" edge="1">
          <mxGeometry width="50" height="50" relative="1" as="geometry">
            <mxPoint x="-220" y="690" as="sourcePoint" />
            <mxPoint x="-170" y="640" as="targetPoint" />
            <Array as="points">
              <mxPoint x="-80" y="690" />
            </Array>
          </mxGeometry>
        </mxCell>
        <mxCell id="mKIrfrcM3_r9y4etdSSy-52" value="&lt;font color=&quot;#66cc00&quot; style=&quot;font-size: 14px;&quot;&gt;Y&lt;/font&gt;" style="text;html=1;strokeColor=none;fillColor=none;align=center;verticalAlign=middle;whiteSpace=wrap;rounded=0;fontSize=14;" parent="1" vertex="1">
          <mxGeometry x="-200" y="660" width="40" height="20" as="geometry" />
        </mxCell>
        <mxCell id="mKIrfrcM3_r9y4etdSSy-53" value="&lt;font color=&quot;#ff0000&quot; style=&quot;font-size: 14px;&quot;&gt;N&lt;/font&gt;" style="text;html=1;strokeColor=none;fillColor=none;align=center;verticalAlign=middle;whiteSpace=wrap;rounded=0;fontSize=14;" parent="1" vertex="1">
          <mxGeometry x="-290" y="760" width="40" height="20" as="geometry" />
        </mxCell>
        <mxCell id="mKIrfrcM3_r9y4etdSSy-55" value="" style="endArrow=classic;html=1;exitX=0.5;exitY=1;exitDx=0;exitDy=0;entryX=1;entryY=0.5;entryDx=0;entryDy=0;fontSize=14;" parent="1" source="mKIrfrcM3_r9y4etdSSy-49" target="mKIrfrcM3_r9y4etdSSy-56" edge="1">
          <mxGeometry width="50" height="50" relative="1" as="geometry">
            <mxPoint x="-230" y="830" as="sourcePoint" />
            <mxPoint x="-255" y="850" as="targetPoint" />
            <Array as="points">
              <mxPoint x="-255" y="850" />
            </Array>
          </mxGeometry>
        </mxCell>
        <mxCell id="mKIrfrcM3_r9y4etdSSy-56" value="客服驳回结算的意见" style="rounded=1;whiteSpace=wrap;html=1;fillColor=#d5e8d4;strokeColor=#82b366;fontSize=14;" parent="1" vertex="1">
          <mxGeometry x="-570" y="820" width="120" height="60" as="geometry" />
        </mxCell>
        <mxCell id="mKIrfrcM3_r9y4etdSSy-57" value="" style="endArrow=classic;html=1;exitX=0;exitY=0.5;exitDx=0;exitDy=0;fontSize=14;" parent="1" source="mKIrfrcM3_r9y4etdSSy-56" edge="1">
          <mxGeometry width="50" height="50" relative="1" as="geometry">
            <mxPoint x="-690" y="850" as="sourcePoint" />
            <mxPoint x="-760" y="690" as="targetPoint" />
            <Array as="points">
              <mxPoint x="-760" y="850" />
            </Array>
          </mxGeometry>
        </mxCell>
      </root>
    </mxGraphModel>
  </diagram>
</mxfile>
